<?xml version="1.0" encoding="UTF-8" standalone="no"?>
<svg
   xmlns:dc="http://purl.org/dc/elements/1.1/"
   xmlns:cc="http://creativecommons.org/ns#"
   xmlns:rdf="http://www.w3.org/1999/02/22-rdf-syntax-ns#"
   xmlns:svg="http://www.w3.org/2000/svg"
   xmlns="http://www.w3.org/2000/svg"
   viewBox="0 0 793.70135 1122.52"
   height="1122.52"
   width="793.70135"
   xml:space="preserve"
   id="svg2"
   version="1.1"><metadata
     id="metadata8"><rdf:RDF><cc:Work
         rdf:about=""><dc:format>image/svg+xml</dc:format><dc:type
           rdf:resource="http://purl.org/dc/dcmitype/StillImage" /></cc:Work></rdf:RDF></metadata><defs
     id="defs6"><linearGradient
       id="linearGradient46"
       spreadMethod="pad"
       gradientTransform="matrix(79.448837,79.448837,79.448837,-79.448837,154.35994,505.19559)"
       gradientUnits="userSpaceOnUse"
       y2="0"
       x2="1"
       y1="0"
       x1="0"><stop
         id="stop24"
         offset="0"
         style="stop-opacity:1;stop-color:#c09f51" /><stop
         id="stop26"
         offset="0.00013537"
         style="stop-opacity:1;stop-color:#c09f51" /><stop
         id="stop28"
         offset="0.0142295"
         style="stop-opacity:1;stop-color:#c09f51" /><stop
         id="stop30"
         offset="0.103337"
         style="stop-opacity:1;stop-color:#f68712" /><stop
         id="stop32"
         offset="0.249481"
         style="stop-opacity:1;stop-color:#4e2418" /><stop
         id="stop34"
         offset="0.42635778"
         style="stop-opacity:1;stop-color:#fcd44b" /><stop
         id="stop36"
         offset="0.427863"
         style="stop-opacity:1;stop-color:#fcd44b" /><stop
         id="stop38"
         offset="0.49726001"
         style="stop-opacity:1;stop-color:#d8d78b" /><stop
         id="stop40"
         offset="0.684752"
         style="stop-opacity:1;stop-color:#d8d78b" /><stop
         id="stop42"
         offset="0.877909"
         style="stop-opacity:1;stop-color:#e9c035" /><stop
         id="stop44"
         offset="1"
         style="stop-opacity:1;stop-color:#c09f51" /></linearGradient><clipPath
       id="clipPath56"
       clipPathUnits="userSpaceOnUse"><path
         id="path54"
         d="M 0,841.89 H 595.276 V 0 H 0 Z" /></clipPath></defs><g
     transform="matrix(1.3333333,0,0,-1.3333333,0,1122.52)"
     id="g10"><g
       id="g12"><g
         id="g14"><g
           id="g20"><g
             id="g22"><path
               id="path48"
               style="fill:url(#linearGradient46);stroke:none"
               d="m 184.733,634.518 c 0,0 1.059,-22.508 3.443,-25.686 v 0 c -31.777,-27.805 -53.03,-50.155 -48.46,-79.707 v 0 c 3.641,-23.537 27.54,-45.281 59.317,-44.222 v 0 c 5.812,0.193 10.994,1.125 15.595,2.577 v 0 c 2.923,-14.242 4.927,-25.251 4.927,-28.66 v 0 c 0,-15.272 -2.039,-26.744 -18.717,-30.747 v 0 c -5.388,-1.292 -22.066,1.582 -22.109,17.576 v 0 c -0.045,16.402 13.254,19.786 12.227,20.832 v 0 c -2.891,2.943 -7.247,4.532 -11.645,4.251 v 0 l -0.156,-0.017 c -11.989,-1.722 -26.111,-20.743 -6.08,-40.03 v 0 c 3.185,-3.065 19.608,-14.299 40.395,-1.297 v 0 c 7.567,4.733 11.482,18.34 9.442,33.642 v 0 c -0.484,3.633 -1.871,10.69 -4.905,25.489 v 0 c 17.889,7.244 37.163,36.247 32.507,59.792 v 0 c -4.302,21.757 -29.905,25.079 -44.786,-2.52 v 0 c -3.279,14.294 -8.768,39.044 -9.491,42.12 v 0 c 9.16,7.928 17.588,15.787 22.656,24.628 v 0 c 23.832,41.575 -10.592,81.561 -10.592,81.561 v 0 c 0,0 -23.568,-16.418 -23.568,-59.582 m 24.032,37.801 c 16.285,0.597 20.456,-31.975 -15.094,-59.581 v 0 c -1.788,18.272 -1.192,58.985 15.094,59.581 M 196.352,488.412 c -13.604,0.198 -41.066,10.451 -43.373,40.225 v 0 c -1.955,25.22 21.115,40.312 39.861,56.355 v 0 c 0.493,-2.108 4.652,-20.281 9.21,-40.349 v 0 c -4.164,1.56 -23.832,8.192 -34.023,-1.476 v 0 c -14.694,-13.941 -2.915,-34.591 19.853,-43.792 v 0 c 9.142,-3.695 14.447,-4.014 14.447,-4.014 v 0 c 0,0 -25.302,13.244 -25.749,30.025 v 0 c -0.498,18.666 20.214,16.391 26.368,15.306 v 0 c 4.761,-20.981 9.722,-43.004 11.256,-50.329 v 0 c -3.94,-1.032 -12.516,-1.955 -17.347,-1.955 v 0 c -0.173,0 -0.34,0.002 -0.503,0.004 m 10.53,53.274 c 6.894,6.503 10.048,9.614 17.016,10.334 v 0 c 8.677,0.898 16.772,-2.663 17.004,-15.319 v 0 c 0.427,-23.203 -13.971,-39.558 -23.531,-45.353 v 0 c -3.041,14.505 -7.032,35.036 -10.489,50.338" /></g></g></g></g><g
       id="g50"><g
         clip-path="url(#clipPath56)"
         id="g52"><g
           transform="translate(226.8521,478.9009)"
           id="g58"><path
             id="path60"
             style="fill:#231f20;fill-opacity:1;fill-rule:nonzero;stroke:#c09f51;stroke-width:2;stroke-linecap:butt;stroke-linejoin:miter;stroke-miterlimit:10;stroke-dasharray:none;stroke-opacity:1"
             d="M 0,0 H 32.088" /></g><g
           transform="translate(250.5143,478.9022)"
           id="g62"><path
             id="path64"
             style="fill:#c09f51;fill-opacity:1;fill-rule:nonzero;stroke:none"
             d="m 0,0 c 0,-2.938 -3.411,-5.319 -7.618,-5.319 -4.208,0 -7.619,2.381 -7.619,5.319 0,2.938 3.411,5.319 7.619,5.319 C -3.411,5.319 0,2.938 0,0" /></g><g
           transform="translate(274.1766,487.5428)"
           id="g66"><path
             id="path68"
             style="fill:#c09f51;fill-opacity:1;fill-rule:nonzero;stroke:none"
             d="m 0,0 c 0,-2.938 -3.411,-5.319 -7.618,-5.319 -4.208,0 -7.619,2.381 -7.619,5.319 0,2.938 3.411,5.319 7.619,5.319 C -3.411,5.319 0,2.938 0,0" /></g><g
           transform="translate(276.1805,541.7214)"
           id="g70"><path
             id="path72"
             style="fill:#231f20;fill-opacity:1;fill-rule:nonzero;stroke:none"
             d="M 0,0 C 0.228,0.087 0.453,0.156 0.681,0.252 1.886,0.758 3.101,1.348 4.319,2 H -6.49 C -6.626,1.312 -6.722,0.646 -6.784,0 Z" /></g><g
           transform="translate(252.5761,525.7664)"
           id="g74"><path
             id="path76"
             style="fill:#231f20;fill-opacity:1;fill-rule:nonzero;stroke:none"
             d="m 0,0 h 55.261 c 0.078,0.125 0.161,0.262 0.237,0.384 C 55.88,0.992 56.22,1.527 56.524,2 H 0 Z" /></g><g
           transform="translate(255.1401,543.7214)"
           id="g78"><path
             id="path80"
             style="fill:#231f20;fill-opacity:1;fill-rule:nonzero;stroke:none"
             d="m 0,0 v -2 h 4.004 c -0.018,0.272 -0.029,0.542 -0.029,0.81 0,0.393 0.019,0.792 0.036,1.19 z" /></g><g
           transform="translate(420.3984,527.7664)"
           id="g82"><path
             id="path84"
             style="fill:#231f20;fill-opacity:1;fill-rule:nonzero;stroke:none"
             d="M 0,0 V -0.059 C 0.556,-0.511 1.054,-1.035 1.472,-1.645 1.549,-1.757 1.605,-1.884 1.676,-2 h 17.592 c 0.067,0.051 0.134,0.11 0.201,0.16 0.916,0.685 1.844,1.295 2.774,1.84 z" /></g><g
           transform="translate(489.9726,511.8113)"
           id="g86"><path
             id="path88"
             style="fill:#231f20;fill-opacity:1;fill-rule:nonzero;stroke:none"
             d="m 0,0 h -28.305 v -0.666 c 0.468,-0.309 0.865,-0.718 1.133,-1.221 0,-10e-4 0,0.001 0.001,-0.003 0.019,-0.036 0.026,-0.074 0.044,-0.11 H 0 Z" /></g><g
           transform="translate(383.7393,527.7664)"
           id="g90"><path
             id="path92"
             style="fill:#231f20;fill-opacity:1;fill-rule:nonzero;stroke:none"
             d="m 0,0 h -13.224 c 0.33,-0.64 0.572,-1.307 0.724,-2 h 10.555 c 0.136,0.316 0.301,0.62 0.517,0.896 C -1.047,-0.614 -0.553,-0.246 0,0" /></g><g
           transform="translate(318.3364,527.7664)"
           id="g94"><path
             id="path96"
             style="fill:#231f20;fill-opacity:1;fill-rule:nonzero;stroke:none"
             d="m 0,0 c 0.489,-0.7 0.745,-1.389 0.863,-2 h 7.003 c 0.428,0.715 0.812,1.378 1.16,2 z" /></g><g
           transform="translate(354.9817,527.7664)"
           id="g98"><path
             id="path100"
             style="fill:#231f20;fill-opacity:1;fill-rule:nonzero;stroke:none"
             d="m 0,0 h -17.503 c 0.175,-0.62 0.275,-1.255 0.275,-1.908 L -17.232,-2 H -1.98 c 0.162,0.189 0.324,0.385 0.486,0.56 0.51,0.556 1,1.043 1.494,1.44" /></g><g
           transform="translate(298.9447,557.6765)"
           id="g102"><path
             id="path104"
             style="fill:#231f20;fill-opacity:1;fill-rule:nonzero;stroke:none"
             d="M 0,0 C 0.072,0.064 0.142,0.125 0.214,0.189 0.558,0.79 0.924,1.395 1.278,2 h -23.726 c -0.384,-0.666 -0.759,-1.332 -1.126,-2 z" /></g><g
           transform="translate(329.9395,557.6765)"
           id="g106"><path
             id="path108"
             style="fill:#231f20;fill-opacity:1;fill-rule:nonzero;stroke:none"
             d="m 0,0 c 0.476,0.719 0.953,1.385 1.429,2 h -13.37 C -13.104,1.257 -14.2,0.591 -15.227,0 Z" /></g><g
           transform="translate(489.9726,543.7214)"
           id="g110"><path
             id="path112"
             style="fill:#231f20;fill-opacity:1;fill-rule:nonzero;stroke:none"
             d="m 0,0 h -102.58 c -0.258,-0.791 -0.75,-1.457 -1.286,-2 H 0 Z" /></g><g
           transform="translate(387.9716,527.4338)"
           id="g114"><path
             id="path116"
             style="fill:#231f20;fill-opacity:1;fill-rule:nonzero;stroke:none"
             d="M 0,0 C -0.002,0 -0.005,0.001 -0.007,0.001 0.047,-0.026 0.1,-0.061 0.154,-0.089 V 0.019 C 0.102,0.015 0.054,0 0,0" /></g><path
           id="path118"
           style="fill:#231f20;fill-opacity:1;fill-rule:nonzero;stroke:none"
           d="m 132.418,543.721 h -30.785 v -2 h 30.785 z" /><g
           transform="translate(300.1637,494.856)"
           id="g120"><path
             id="path122"
             style="fill:#231f20;fill-opacity:1;fill-rule:nonzero;stroke:none"
             d="M 0,0 C 0,-0.34 -0.032,-0.672 -0.08,-1 H 189.923 V 1 H -0.08 C -0.032,0.672 0,0.34 0,0" /></g><g
           transform="translate(278.9268,494.856)"
           id="g124"><path
             id="path126"
             style="fill:#231f20;fill-opacity:1;fill-rule:nonzero;stroke:none"
             d="M 0,0 C 0,0.34 0.032,0.672 0.08,1 H -42.491 V -1 H 0.08 C 0.032,-0.672 0,-0.34 0,0" /></g><g
           transform="translate(381.8634,559.6765)"
           id="g128"><path
             id="path130"
             style="fill:#231f20;fill-opacity:1;fill-rule:nonzero;stroke:none"
             d="M 0,0 C 0.448,-0.426 0.853,-0.931 1.199,-1.517 1.291,-1.674 1.366,-1.838 1.447,-2 h 106.776 v 2 z" /></g><path
           id="path132"
           style="fill:#231f20;fill-opacity:1;fill-rule:nonzero;stroke:none"
           d="m 101.634,493.856 h 51.41 v 2 h -51.41 z" /><g
           transform="translate(463.118,525.7664)"
           id="g134"><path
             id="path136"
             style="fill:#231f20;fill-opacity:1;fill-rule:nonzero;stroke:none"
             d="M 0,0 H 26.969 V 2 H -0.665 C -0.279,1.405 -0.056,0.724 0,0" /></g><path
           id="path138"
           style="fill:#231f20;fill-opacity:1;fill-rule:nonzero;stroke:none"
           d="m 138.002,559.677 h -36.368 v -2 h 36.368 z" /><g
           transform="translate(263.6999,559.6765)"
           id="g140"><path
             id="path142"
             style="fill:#231f20;fill-opacity:1;fill-rule:nonzero;stroke:none"
             d="M 0,0 H -12.477 V -2 H -0.926 C -0.638,-1.349 -0.33,-0.683 0,0" /></g><g
           transform="translate(299.6513,510.8689)"
           id="g144"><path
             id="path146"
             style="fill:#231f20;fill-opacity:1;fill-rule:nonzero;stroke:none"
             d="m 0,0 c 0.125,0.298 0.265,0.615 0.413,0.942 h -53.805 v -2 h 52.99 C -0.291,-0.732 -0.162,-0.387 0,0" /></g><path
           id="path148"
           style="fill:#231f20;fill-opacity:1;fill-rule:nonzero;stroke:none"
           d="m 132.418,527.766 h -30.785 v -2 h 30.785 z" /><path
           id="path150"
           style="fill:#231f20;fill-opacity:1;fill-rule:nonzero;stroke:none"
           d="m 138.002,511.811 h -36.368 v -2 h 36.368 z" /><g
           transform="translate(350.589,559.6765)"
           id="g152"><path
             id="path154"
             style="fill:#231f20;fill-opacity:1;fill-rule:nonzero;stroke:none"
             d="M 0,0 C 0.025,-0.269 0.041,-0.541 0.041,-0.816 0.041,-1.215 0.022,-1.609 -0.004,-2 h 10.853 c 0.19,0.418 0.405,0.845 0.659,1.288 0.137,0.239 0.287,0.475 0.435,0.712 z" /></g><g
           transform="translate(269.2099,533.5281)"
           id="g156"><path
             id="path158"
             style="fill:#231f20;fill-opacity:1;fill-rule:nonzero;stroke:none"
             d="M 0,0 C -1.291,0 -2.399,0.259 -3.324,0.774 -4.25,1.291 -5.002,1.947 -5.583,2.743 -6.164,3.54 -6.583,4.4 -6.841,5.325 -7.1,6.25 -7.229,7.142 -7.229,8.003 c 0,2.022 0.248,4.108 0.743,6.261 0.494,2.151 1.29,4.507 2.387,7.067 1.098,2.559 2.539,5.378 4.325,8.454 1.785,3.076 3.947,6.551 6.486,10.423 -2.066,0.946 -3.916,1.829 -5.55,2.646 -1.636,0.818 -3.142,1.227 -4.518,1.227 -1.936,0 -3.54,-0.475 -4.809,-1.42 -1.269,-0.947 -1.903,-2.517 -1.903,-4.712 0,-0.731 0.064,-1.453 0.193,-2.163 0.129,-0.71 0.258,-1.366 0.387,-1.968 0.13,-0.603 0.259,-1.13 0.388,-1.582 0.129,-0.451 0.193,-0.763 0.193,-0.935 0,-0.129 -0.043,-0.194 -0.129,-0.194 -0.172,0 -0.516,0.171 -1.032,0.517 -0.517,0.344 -1.043,0.849 -1.582,1.517 -0.537,0.666 -1.01,1.494 -1.419,2.484 -0.409,0.989 -0.614,2.13 -0.614,3.421 0,3.012 0.904,5.39 2.711,7.133 1.807,1.742 4.173,2.613 7.099,2.613 2.237,0 4.27,-0.354 6.1,-1.064 1.828,-0.71 3.688,-1.485 5.582,-2.324 1.893,-0.84 3.969,-1.614 6.228,-2.324 2.259,-0.71 4.959,-1.064 8.1,-1.064 1.377,0 2.582,0.064 3.614,0.193 1.033,0.129 1.914,0.388 2.646,0.774 0.731,0.388 1.333,0.914 1.807,1.581 0.473,0.667 0.86,1.518 1.162,2.55 0.258,0.817 0.581,1.227 0.968,1.227 0.258,0 0.494,-0.162 0.71,-0.485 0.215,-0.322 0.322,-0.72 0.322,-1.194 0,-1.765 -0.354,-3.27 -1.064,-4.517 -0.71,-1.249 -1.625,-2.27 -2.743,-3.066 -1.12,-0.797 -2.399,-1.388 -3.84,-1.775 -1.442,-0.387 -2.872,-0.58 -4.292,-0.58 -1.807,0 -3.507,0.129 -5.098,0.386 -1.593,0.259 -3.078,0.603 -4.454,1.034 C 10.239,35.733 8.54,33.13 6.776,30.334 5.012,27.536 3.398,24.708 1.936,21.847 0.473,18.985 -0.721,16.156 -1.646,13.36 -2.572,10.563 -3.034,7.981 -3.034,5.615 c 0,-0.989 0.312,-1.688 0.936,-2.097 0.623,-0.409 1.473,-0.614 2.55,-0.614 2.667,0 5.41,0.592 8.228,1.776 2.818,1.182 5.636,2.72 8.455,4.614 2.818,1.893 5.615,4.012 8.39,6.356 2.775,2.345 5.431,4.658 7.971,6.938 0.171,0.172 0.387,0.291 0.646,0.355 0.257,0.065 0.515,0.097 0.774,0.097 0.344,0 0.655,-0.064 0.936,-0.193 0.279,-0.129 0.419,-0.302 0.419,-0.517 0,-0.173 -0.086,-0.345 -0.258,-0.517 C 34.679,20.437 33.141,18.941 31.398,17.328 29.655,15.715 27.773,14.102 25.751,12.487 23.729,10.874 21.621,9.315 19.426,7.81 17.232,6.303 15.016,4.97 12.779,3.809 10.541,2.646 8.335,1.722 6.164,1.033 3.99,0.345 1.936,0 0,0" /></g><g
           transform="translate(308.3847,560.1833)"
           id="g160"><path
             id="path162"
             style="fill:#231f20;fill-opacity:1;fill-rule:nonzero;stroke:none"
             d="m 0,0 c 0.687,0.086 1.914,0.613 3.679,1.581 1.763,0.968 3.775,2.204 6.034,3.711 2.259,1.506 4.636,3.184 7.132,5.034 2.495,1.85 4.818,3.7 6.97,5.551 2.151,1.849 4.001,3.614 5.55,5.292 1.55,1.678 2.539,3.098 2.97,4.26 0.214,0.73 0.322,1.42 0.322,2.065 0,1.074 -0.28,2.065 -0.839,2.969 -0.559,0.903 -1.506,1.355 -2.839,1.355 -1.292,0 -2.604,-0.41 -3.938,-1.226 -1.334,-0.819 -2.636,-1.829 -3.904,-3.033 -1.27,-1.205 -2.475,-2.486 -3.615,-3.841 -1.14,-1.355 -2.14,-2.572 -3.001,-3.647 C 13.102,18.394 11.768,16.77 10.52,15.199 9.271,13.628 8.067,12.036 6.906,10.423 5.744,8.81 4.593,7.142 3.453,5.421 2.313,3.7 1.162,1.893 0,0 m -10.842,-26.01 c 0.687,0 1.429,0.388 2.226,1.162 0.796,0.775 1.527,1.722 2.194,2.84 0.667,1.118 1.216,2.313 1.646,3.582 0.429,1.269 0.645,2.42 0.645,3.452 0,0.775 -0.161,1.518 -0.483,2.227 -0.323,0.71 -0.894,1.323 -1.711,1.84 -0.516,-0.517 -1.087,-1.346 -1.71,-2.485 -0.624,-1.14 -1.205,-2.367 -1.742,-3.678 -0.539,-1.314 -0.991,-2.582 -1.356,-3.809 -0.366,-1.225 -0.549,-2.183 -0.549,-2.872 0,-0.602 0.086,-1.129 0.259,-1.581 0.171,-0.451 0.365,-0.678 0.581,-0.678 m -0.517,-3.485 c -1.334,0 -2.247,0.593 -2.743,1.775 -0.494,1.184 -0.742,2.572 -0.742,4.163 0,1.29 0.484,3.14 1.452,5.55 0.968,2.409 2.237,5.099 3.808,8.068 1.57,2.968 3.334,6.077 5.292,9.326 1.957,3.248 3.926,6.357 5.905,9.326 1.979,2.969 3.883,5.657 5.712,8.067 1.828,2.409 3.389,4.281 4.68,5.616 1.074,1.074 2.236,2.3 3.484,3.678 1.248,1.376 2.56,2.667 3.938,3.872 1.376,1.204 2.796,2.227 4.26,3.066 1.461,0.839 2.924,1.259 4.388,1.259 1.462,0 2.656,-0.129 3.582,-0.388 0.925,-0.258 1.656,-0.667 2.195,-1.226 0.537,-0.559 0.913,-1.281 1.128,-2.162 0.215,-0.883 0.324,-1.927 0.324,-3.131 0,-1.592 -0.528,-3.269 -1.582,-5.033 -1.055,-1.766 -2.485,-3.55 -4.291,-5.357 C 27.623,15.167 25.535,13.369 23.17,11.585 20.803,9.799 18.308,8.057 15.684,6.357 13.059,4.657 10.401,3.043 7.713,1.517 5.023,-0.012 2.474,-1.398 0.064,-2.646 -0.538,-2.947 -1.13,-3.356 -1.71,-3.872 c -0.581,-0.517 -1.12,-1.076 -1.614,-1.679 -0.495,-0.602 -0.947,-1.248 -1.355,-1.935 -0.41,-0.69 -0.7,-1.356 -0.872,-2.001 0.775,-0.431 1.667,-0.839 2.679,-1.227 1.011,-0.387 2.055,-0.721 3.13,-1 1.075,-0.28 2.162,-0.495 3.26,-0.645 1.096,-0.152 2.139,-0.226 3.129,-0.226 7.142,0 13.725,2.646 19.749,7.939 0.215,0.214 0.43,0.354 0.646,0.418 0.215,0.065 0.408,0.097 0.581,0.097 0.43,0 0.646,-0.129 0.646,-0.385 0,-0.171 -0.065,-0.374 -0.194,-0.609 -0.13,-0.234 -0.237,-0.396 -0.323,-0.48 -1.161,-1.07 -2.475,-2.117 -3.937,-3.143 -1.463,-1.026 -3.033,-1.935 -4.711,-2.725 -1.678,-0.791 -3.464,-1.432 -5.357,-1.924 -1.893,-0.492 -3.894,-0.737 -6.002,-0.737 H 4.679 c -0.882,0 -1.71,0.067 -2.485,0.2 -0.774,0.134 -1.516,0.326 -2.226,0.572 -0.71,0.246 -1.495,0.548 -2.356,0.906 0.43,-0.56 0.775,-1.205 1.033,-1.937 0.258,-0.731 0.387,-1.635 0.387,-2.711 0,-1.248 -0.344,-2.591 -1.033,-4.033 -0.688,-1.441 -1.56,-2.785 -2.613,-4.034 -1.055,-1.247 -2.185,-2.279 -3.389,-3.098 -1.205,-0.816 -2.323,-1.226 -3.356,-1.226" /></g><g
           transform="translate(343.4297,550.115)"
           id="g164"><path
             id="path166"
             style="fill:#231f20;fill-opacity:1;fill-rule:nonzero;stroke:none"
             d="m 0,0 c 0.43,0.43 0.807,0.979 1.13,1.646 0.322,0.667 0.581,1.366 0.774,2.097 0.194,0.732 0.344,1.463 0.451,2.194 0.108,0.732 0.163,1.399 0.163,2.001 0,0.775 -0.27,1.571 -0.807,2.388 -0.539,0.818 -1.13,1.227 -1.775,1.227 -0.603,0 -1.109,-0.281 -1.517,-0.839 C -1.99,10.154 -2.313,9.52 -2.549,8.81 -2.786,8.1 -2.959,7.432 -3.065,6.81 -3.174,6.185 -3.227,5.809 -3.227,5.68 c 0,-0.474 0.053,-1.012 0.162,-1.614 0.106,-0.603 0.29,-1.194 0.548,-1.775 0.258,-0.58 0.591,-1.087 1,-1.517 C -1.108,0.344 -0.603,0.086 0,0 m -9.229,-10.52 c 0.731,0 1.527,0.3 2.388,0.904 0.861,0.601 1.688,1.355 2.485,2.259 0.795,0.903 1.505,1.86 2.129,2.872 0.623,1.01 1.066,1.904 1.324,2.678 -0.604,0.3 -1.13,0.602 -1.581,0.904 -0.453,0.3 -0.871,0.677 -1.259,1.129 -0.388,0.452 -0.775,1.01 -1.162,1.678 -0.387,0.666 -0.818,1.517 -1.29,2.549 -1.378,-2.065 -2.55,-4.162 -3.518,-6.292 -0.969,-2.13 -1.452,-4.163 -1.452,-6.099 0,-1.721 0.645,-2.582 1.936,-2.582 m 22.492,9.261 c -2.604,-0.968 -5.11,-1.452 -7.519,-1.452 -0.688,0 -1.366,0.054 -2.033,0.162 -0.667,0.107 -1.345,0.161 -2.033,0.161 -0.301,0 -0.528,-0.096 -0.677,-0.291 C 0.85,-2.872 0.667,-3.162 0.452,-3.55 c -0.774,-1.29 -1.593,-2.516 -2.453,-3.679 -0.86,-1.161 -1.753,-2.172 -2.678,-3.033 -0.925,-0.861 -1.894,-1.538 -2.904,-2.033 -1.012,-0.494 -2.056,-0.742 -3.131,-0.742 -1.032,0 -1.861,0.173 -2.484,0.516 -0.624,0.345 -1.109,0.807 -1.452,1.388 -0.345,0.581 -0.581,1.237 -0.71,1.969 -0.129,0.73 -0.194,1.462 -0.194,2.194 0,1.849 0.398,3.753 1.194,5.711 0.796,1.958 1.699,3.744 2.711,5.358 1.01,1.613 2.001,2.946 2.968,4.001 0.969,1.053 1.646,1.581 2.034,1.581 0.558,0 1.064,0.161 1.516,0.484 0.452,0.322 0.903,0.688 1.356,1.097 0.452,0.409 0.924,0.774 1.42,1.097 0.494,0.323 1.107,0.485 1.838,0.485 1.334,0 2.431,-0.528 3.292,-1.582 C 3.636,10.207 4.066,9.035 4.066,7.745 4.066,6.196 3.84,4.744 3.389,3.389 2.937,2.033 2.409,0.623 1.808,-0.839 2.323,-0.926 2.829,-1 3.324,-1.064 c 0.494,-0.065 1,-0.097 1.517,-0.097 2.753,0 5.485,0.655 8.196,1.968 0,0 1.646,0.677 2.517,0.032 0.871,-0.646 -2.291,-2.098 -2.291,-2.098" /></g><g
           transform="translate(367.1152,550.9539)"
           id="g168"><path
             id="path170"
             style="fill:#231f20;fill-opacity:1;fill-rule:nonzero;stroke:none"
             d="m 0,0 c 0.816,0 1.721,0.484 2.711,1.452 0.989,0.969 1.893,2.075 2.71,3.324 0.817,1.247 1.506,2.485 2.065,3.711 0.559,1.226 0.839,2.098 0.839,2.614 0,0.3 -0.087,0.452 -0.258,0.452 -0.861,0 -1.807,-0.42 -2.839,-1.259 C 4.195,9.455 3.227,8.455 2.323,7.293 1.42,6.132 0.666,4.959 0.064,3.776 -0.539,2.592 -0.839,1.656 -0.839,0.969 -0.839,0.323 -0.56,0 0,0 m 15.715,-8.927 c -1.527,-1.013 -2.958,-1.845 -4.291,-2.493 -1.335,-0.647 -2.476,-0.972 -3.421,-0.972 -1.033,0 -1.883,0.237 -2.55,0.71 -0.667,0.474 -1,1.269 -1,2.389 0,1.376 0.247,2.753 0.742,4.13 0.494,1.377 1.065,2.646 1.71,3.808 C 7.551,-0.193 8.186,0.828 8.81,1.711 9.433,2.592 9.874,3.27 10.133,3.743 10.004,3.915 9.874,4.002 9.745,4.002 9.487,4.002 9.132,3.851 8.681,3.55 8.229,3.248 7.745,2.883 7.229,2.453 6.712,2.022 6.206,1.56 5.712,1.065 5.217,0.57 4.797,0.107 4.453,-0.322 3.463,-1.484 2.333,-2.84 1.064,-4.389 c -1.269,-1.548 -2.613,-3.033 -4.033,-4.453 -1.42,-1.42 -2.884,-2.613 -4.388,-3.582 -1.507,-0.968 -2.991,-1.452 -4.454,-1.452 -1.033,0 -1.936,0.42 -2.71,1.259 -0.775,0.839 -1.163,1.946 -1.163,3.324 0,1.247 0.248,2.452 0.743,3.614 0.495,1.161 1.097,2.183 1.807,3.066 0.71,0.881 1.452,1.581 2.227,2.097 0.774,0.516 1.42,0.775 1.935,0.775 0.259,0 0.538,-0.087 0.84,-0.259 0.3,-0.172 0.591,-0.387 0.871,-0.646 0.28,-0.257 0.517,-0.527 0.71,-0.806 0.194,-0.28 0.29,-0.527 0.29,-0.742 0,-0.172 -0.064,-0.323 -0.193,-0.452 -0.604,-0.516 -1.216,-1.152 -1.84,-1.904 -0.624,-0.753 -1.184,-1.516 -1.678,-2.291 -0.494,-0.774 -0.903,-1.516 -1.226,-2.226 -0.323,-0.71 -0.484,-1.282 -0.484,-1.711 0,-0.474 0.216,-0.709 0.646,-0.709 0.946,0 1.957,0.29 3.033,0.871 1.075,0.581 2.15,1.311 3.227,2.194 1.075,0.881 2.087,1.86 3.033,2.937 0.946,1.075 1.743,2.107 2.389,3.097 l 0.128,0.452 h -0.71 -0.71 -0.452 c -0.473,0 -0.871,0.151 -1.193,0.452 -0.323,0.3 -0.592,0.655 -0.807,1.065 -0.215,0.408 -0.366,0.849 -0.452,1.323 -0.087,0.473 -0.129,0.904 -0.129,1.29 0,0.905 0.376,2.011 1.129,3.325 0.753,1.312 1.667,2.57 2.743,3.775 1.076,1.204 2.162,2.236 3.26,3.098 1.097,0.86 2.011,1.291 2.742,1.291 0.345,0 0.753,-0.033 1.227,-0.097 0.473,-0.065 0.914,-0.227 1.323,-0.484 0.408,-0.258 0.764,-0.635 1.065,-1.129 0.3,-0.495 0.452,-1.153 0.452,-1.969 0,-0.388 -0.109,-0.871 -0.323,-1.452 C 9.724,7.971 9.477,7.411 9.197,6.874 8.916,6.335 8.669,5.841 8.454,5.39 8.238,4.937 8.132,4.647 8.132,4.519 c 0,-0.044 0.021,-0.066 0.064,-0.066 0.258,0 0.549,0.075 0.871,0.227 0.324,0.15 0.635,0.322 0.937,0.515 0.3,0.195 0.601,0.366 0.903,0.517 0.301,0.15 0.559,0.225 0.775,0.225 0.3,0 0.581,-0.118 0.839,-0.354 C 12.778,5.346 13.015,5.045 13.23,4.68 13.445,4.313 13.618,3.926 13.747,3.518 13.876,3.108 13.94,2.732 13.94,2.389 13.94,1.872 13.8,1.301 13.521,0.678 13.24,0.054 12.896,-0.58 12.488,-1.226 12.079,-1.871 11.649,-2.517 11.197,-3.162 10.746,-3.808 10.348,-4.41 10.004,-4.97 9.788,-5.314 9.529,-5.712 9.229,-6.163 8.928,-6.615 8.648,-7.078 8.39,-7.551 8.132,-8.024 7.906,-8.477 7.712,-8.906 c -0.193,-0.431 -0.29,-0.797 -0.29,-1.097 0,-0.475 0.301,-0.71 0.903,-0.71 0.646,0 1.506,0.291 2.582,0.874 1.075,0.583 2.269,1.339 3.582,2.268 0,0 1.836,1.893 2.667,0.979 0.831,-0.915 -1.441,-2.335 -1.441,-2.335" /></g><g
           transform="translate(326.1658,503.1603)"
           id="g172"><path
             id="path174"
             style="fill:#231f20;fill-opacity:1;fill-rule:nonzero;stroke:none"
             d="m 0,0 c -2.152,0 -3.679,0.318 -4.582,0.953 -0.904,0.636 -1.355,1.736 -1.355,3.304 0,0.763 0.096,1.555 0.29,2.382 0.193,0.826 0.429,1.609 0.71,2.35 0.279,0.741 0.57,1.398 0.871,1.97 0.3,0.571 0.581,0.985 0.838,1.239 H -9.52 c -1.915,0 -4.056,-0.176 -6.421,-0.525 -0.775,-1.14 -1.539,-2.245 -2.291,-3.318 -0.754,-1.073 -1.411,-2.333 -1.969,-3.778 -0.129,-0.306 -0.237,-0.657 -0.322,-1.052 -0.087,-0.393 -0.184,-0.765 -0.291,-1.116 -0.108,-0.35 -0.248,-0.646 -0.419,-0.888 -0.173,-0.239 -0.388,-0.36 -0.646,-0.36 -0.817,0 -1.452,0.258 -1.904,0.775 -0.451,0.516 -0.678,1.397 -0.678,2.645 0,0.388 0.193,1.043 0.581,1.969 0.388,0.925 0.894,2.001 1.517,3.227 0.623,1.226 1.333,2.538 2.13,3.937 0.796,1.398 1.581,2.754 2.355,4.067 0.774,1.312 1.506,2.517 2.194,3.615 0.689,1.096 1.248,1.967 1.679,2.613 0.085,0.043 0.3,0.075 0.645,0.096 0.344,0.022 0.559,0.033 0.645,0.033 0.732,0 1.366,-0.262 1.904,-0.786 0.538,-0.525 0.807,-1.089 0.807,-1.695 0,-0.484 -0.161,-1.029 -0.484,-1.635 -0.323,-0.604 -0.71,-1.23 -1.161,-1.875 -0.453,-0.645 -0.926,-1.281 -1.42,-1.906 -0.495,-0.625 -0.894,-1.22 -1.195,-1.785 0.818,0.087 1.624,0.162 2.421,0.227 0.795,0.065 1.634,0.13 2.517,0.195 0.882,0.064 1.872,0.14 2.969,0.226 1.097,0.087 2.398,0.195 3.904,0.326 0.43,0.043 0.914,0.335 1.452,0.876 0.538,0.54 1.098,1.211 1.679,2.011 0.581,0.801 1.15,1.666 1.71,2.596 0.558,0.93 1.053,1.785 1.484,2.564 0.43,0.778 0.903,1.666 1.42,2.661 0.172,0.087 0.408,0.13 0.71,0.13 0.602,0 1.162,-0.384 1.678,-1.151 C 8.196,24.351 8.455,23.544 8.455,22.698 8.411,22.176 8.218,21.613 7.874,21.01 7.529,20.407 7.142,19.805 6.712,19.202 6.281,18.599 5.851,17.986 5.421,17.363 4.99,16.74 4.646,16.169 4.389,15.646 4.905,15.554 5.421,15.472 5.937,15.403 6.454,15.333 6.959,15.206 7.454,15.021 7.948,14.835 8.4,14.591 8.81,14.291 9.218,13.99 9.552,13.538 9.81,12.937 8.562,13.434 7.39,13.683 6.293,13.683 H 2.84 C 1.032,11.178 -0.312,9.096 -1.194,7.434 -2.076,5.771 -2.518,4.417 -2.518,3.37 c 0,-0.592 0.14,-0.978 0.42,-1.16 0.28,-0.183 0.656,-0.273 1.13,-0.273 0.86,0 2.043,0.273 3.549,0.82 1.506,0.548 3.184,1.282 5.034,2.203 1.85,0.92 3.797,1.972 5.841,3.154 2.044,1.183 4.056,2.399 6.035,3.648 1.979,1.248 3.829,2.475 5.55,3.68 1.721,1.205 3.205,2.29 4.453,3.254 0.215,0.263 0.474,0.46 0.776,0.591 0.299,0.132 0.58,0.198 0.838,0.198 0.516,0 0.775,-0.209 0.775,-0.626 0,-0.218 -0.119,-0.492 -0.356,-0.819 -0.236,-0.328 -0.483,-0.6 -0.742,-0.817 C 29.149,15.869 27.386,14.505 25.493,13.129 23.6,11.754 21.686,10.434 19.749,9.168 17.812,7.901 15.877,6.712 13.94,5.599 12.004,4.485 10.175,3.514 8.455,2.685 6.733,1.855 5.141,1.201 3.679,0.721 2.216,0.241 0.989,0 0,0" /></g><g
           transform="translate(364.2439,516.1974)"
           id="g176"><path
             id="path178"
             style="fill:#231f20;fill-opacity:1;fill-rule:nonzero;stroke:none"
             d="m 0,0 c 0.43,0.43 0.807,0.979 1.129,1.646 0.323,0.667 0.581,1.366 0.774,2.097 0.195,0.732 0.344,1.463 0.452,2.194 0.107,0.732 0.162,1.399 0.162,2.001 0,0.775 -0.27,1.571 -0.807,2.388 -0.538,0.818 -1.13,1.227 -1.774,1.227 -0.604,0 -1.109,-0.281 -1.518,-0.839 C -1.991,10.154 -2.313,9.52 -2.55,8.81 -2.787,8.1 -2.959,7.433 -3.066,6.81 -3.174,6.185 -3.228,5.809 -3.228,5.68 c 0,-0.474 0.054,-1.012 0.162,-1.614 0.107,-0.603 0.291,-1.194 0.548,-1.775 0.259,-0.58 0.591,-1.087 1.001,-1.517 C -1.108,0.344 -0.604,0.086 0,0 m -9.229,-10.52 c 0.731,0 1.526,0.3 2.387,0.904 0.861,0.601 1.689,1.355 2.486,2.259 0.794,0.903 1.504,1.86 2.129,2.872 0.623,1.01 1.065,1.904 1.323,2.678 -0.603,0.3 -1.129,0.602 -1.581,0.904 -0.452,0.3 -0.871,0.677 -1.258,1.129 -0.388,0.452 -0.776,1.01 -1.162,1.678 -0.388,0.666 -0.819,1.517 -1.291,2.549 -1.377,-2.065 -2.549,-4.162 -3.518,-6.292 -0.968,-2.13 -1.452,-4.163 -1.452,-6.099 0,-1.721 0.645,-2.582 1.937,-2.582 m -1.485,-2.517 c -1.033,0 -1.861,0.173 -2.485,0.516 -0.624,0.345 -1.108,0.807 -1.452,1.388 -0.345,0.581 -0.58,1.237 -0.709,1.969 -0.13,0.73 -0.195,1.462 -0.195,2.194 0,1.849 0.398,3.753 1.195,5.711 0.796,1.958 1.699,3.744 2.711,5.358 1.009,1.613 2,2.946 2.968,4.001 0.968,1.053 1.646,1.581 2.034,1.581 0.558,0 1.064,0.162 1.516,0.484 0.451,0.323 0.903,0.688 1.355,1.098 0.452,0.408 0.924,0.774 1.42,1.096 0.494,0.324 1.107,0.485 1.839,0.485 1.333,0 2.431,-0.528 3.291,-1.581 C 3.635,10.208 4.065,9.036 4.065,7.745 4.065,6.196 3.84,4.744 3.388,3.389 2.937,2.033 2.409,0.623 1.807,-0.839 2.323,-0.926 2.828,-1 3.323,-1.064 3.817,-1.129 4.324,-1.161 4.84,-1.161 c 2.753,0 5.486,0.655 8.197,1.968 2.71,1.312 5.314,3.066 7.809,5.26 0.172,0.085 0.323,0.129 0.452,0.129 0.258,0 0.526,-0.076 0.806,-0.226 0.28,-0.152 0.42,-0.29 0.42,-0.419 0,-0.216 -0.087,-0.42 -0.258,-0.614 C 22.094,4.744 21.879,4.539 21.62,4.324 18.651,1.57 15.865,-0.29 13.263,-1.259 10.659,-2.227 8.153,-2.711 5.744,-2.711 5.055,-2.711 4.377,-2.657 3.711,-2.549 3.043,-2.442 2.365,-2.388 1.678,-2.388 1.376,-2.388 1.15,-2.484 1,-2.679 0.849,-2.872 0.666,-3.162 0.451,-3.55 -0.323,-4.84 -1.141,-6.066 -2.001,-7.229 -2.862,-8.39 -3.755,-9.401 -4.68,-10.262 c -0.925,-0.861 -1.893,-1.538 -2.904,-2.033 -1.012,-0.494 -2.055,-0.742 -3.13,-0.742" /></g><g
           transform="translate(413.8093,528.2726)"
           id="g180"><path
             id="path182"
             style="fill:#231f20;fill-opacity:1;fill-rule:nonzero;stroke:none"
             d="m 0,0 c -2.108,0 -3.895,0.171 -5.356,0.516 -1.464,0.343 -2.84,0.731 -4.131,1.162 -1.291,0.429 -2.615,0.816 -3.97,1.162 -1.355,0.344 -2.937,0.515 -4.743,0.515 -1.205,0 -2.238,-0.119 -3.098,-0.354 C -22.159,2.764 -22.88,2.517 -23.46,2.259 -24.041,2 -24.482,1.752 -24.783,1.517 -25.085,1.279 -25.3,1.161 -25.429,1.161 c -0.043,0 -0.064,0.043 -0.064,0.129 0,2.194 0.806,3.883 2.42,5.066 1.613,1.184 3.582,1.776 5.905,1.776 1.377,0 2.785,-0.152 4.228,-0.452 1.441,-0.302 2.893,-0.646 4.356,-1.033 1.462,-0.387 2.904,-0.732 4.324,-1.033 1.42,-0.301 2.818,-0.451 4.196,-0.451 1.806,0 3.323,0.258 4.549,0.774 1.227,0.516 1.84,1.42 1.84,2.711 0.387,0 0.763,-0.334 1.129,-1.001 C 7.819,6.98 8.003,6.173 8.003,5.228 8.003,4.366 7.745,3.603 7.229,2.937 6.712,2.269 6.056,1.72 5.26,1.29 4.463,0.859 3.592,0.537 2.646,0.322 1.699,0.106 0.816,0 0,0 m -2.452,-26.726 c -0.904,0 -1.647,0.108 -2.227,0.323 -0.581,0.216 -1.033,0.495 -1.355,0.84 -0.323,0.344 -0.539,0.763 -0.646,1.257 -0.108,0.494 -0.161,1.001 -0.161,1.517 0,1.808 0.462,3.657 1.387,5.551 0.925,1.892 1.958,3.656 3.099,5.292 1.139,1.634 2.171,3.034 3.097,4.195 0.925,1.162 1.388,1.914 1.388,2.259 0,0.129 -0.065,0.193 -0.193,0.193 -0.775,0 -1.84,-0.462 -3.196,-1.387 -1.355,-0.925 -2.904,-2.162 -4.646,-3.711 -1.743,-1.549 -3.605,-3.346 -5.583,-5.389 -1.98,-2.044 -3.959,-4.185 -5.938,-6.422 -0.603,-0.646 -1.237,-1.291 -1.904,-1.936 -0.667,-0.645 -1.388,-0.968 -2.162,-0.968 -0.56,0 -0.946,0.334 -1.161,1.001 -0.216,0.666 -0.324,1.3 -0.324,1.903 0,0.774 0.151,1.56 0.453,2.355 0.3,0.796 0.687,1.603 1.162,2.421 0.472,0.817 0.989,1.635 1.549,2.453 0.558,0.817 1.096,1.656 1.613,2.517 0.258,0.473 0.558,0.989 0.903,1.549 0.344,0.559 0.667,1.107 0.968,1.645 0.301,0.538 0.559,1.033 0.775,1.485 0.215,0.452 0.323,0.806 0.323,1.065 0,0.258 -0.129,0.387 -0.388,0.387 -0.43,0 -0.903,-0.151 -1.419,-0.452 -0.517,-0.301 -1.033,-0.677 -1.55,-1.129 -0.516,-0.452 -1.022,-0.947 -1.516,-1.484 -0.496,-0.54 -0.936,-1.023 -1.324,-1.453 -1.119,-1.378 -2.162,-2.592 -3.13,-3.646 -0.967,-1.055 -1.925,-2.088 -2.872,-3.098 -0.946,-1.011 -1.882,-2.023 -2.807,-3.034 -0.926,-1.011 -1.926,-2.141 -3.001,-3.388 -0.387,-0.473 -0.958,-0.957 -1.71,-1.452 -0.754,-0.494 -1.388,-0.742 -1.905,-0.742 -0.558,0 -0.945,0.258 -1.161,0.774 -0.215,0.516 -0.323,1.012 -0.323,1.485 0,0.903 0.151,1.817 0.452,2.743 0.302,0.925 0.678,1.86 1.129,2.807 0.452,0.946 0.958,1.881 1.517,2.807 0.559,0.925 1.075,1.818 1.55,2.679 0.428,0.774 0.891,1.538 1.387,2.291 0.493,0.753 0.946,1.495 1.355,2.227 0.409,0.731 0.753,1.452 1.033,2.162 0.279,0.71 0.419,1.409 0.419,2.097 0,0.258 0.075,0.485 0.226,0.678 0.151,0.193 0.355,0.29 0.614,0.29 0.73,0 1.452,-0.29 2.161,-0.871 0.71,-0.581 1.065,-1.28 1.065,-2.098 0,-0.602 -0.129,-1.248 -0.387,-1.935 -0.258,-0.69 -0.56,-1.4 -0.904,-2.13 -0.344,-0.733 -0.732,-1.443 -1.161,-2.131 -0.431,-0.689 -0.797,-1.291 -1.098,-1.808 -0.559,-0.903 -1.128,-1.806 -1.709,-2.71 -0.582,-0.904 -1.109,-1.85 -1.582,-2.839 0.731,0.433 1.473,1.116 2.227,2.048 0.752,0.932 1.43,1.767 2.032,2.505 0.818,0.954 1.797,2.114 2.937,3.481 1.139,1.365 2.345,2.677 3.614,3.934 1.269,1.258 2.539,2.33 3.809,3.22 1.268,0.89 2.484,1.334 3.646,1.334 0.516,0 0.968,-0.141 1.356,-0.423 0.386,-0.282 0.71,-0.63 0.967,-1.041 0.258,-0.411 0.453,-0.845 0.581,-1.301 0.129,-0.456 0.194,-0.878 0.194,-1.268 0,-1.085 -0.345,-2.256 -1.032,-3.514 -0.69,-1.259 -1.453,-2.462 -2.292,-3.611 -0.839,-1.15 -1.604,-2.191 -2.291,-3.122 -0.689,-0.933 -1.033,-1.615 -1.033,-2.049 0,-0.129 0.065,-0.193 0.194,-0.193 0.129,0 0.57,0.429 1.323,1.29 0.752,0.86 1.699,1.925 2.84,3.195 1.139,1.268 2.42,2.656 3.84,4.163 1.42,1.506 2.872,2.894 4.356,4.163 1.484,1.269 2.946,2.334 4.389,3.195 1.441,0.861 2.743,1.29 3.905,1.29 0.429,0 0.827,-0.139 1.193,-0.418 0.366,-0.281 0.688,-0.625 0.968,-1.034 0.28,-0.409 0.494,-0.86 0.646,-1.354 0.15,-0.495 0.226,-0.937 0.226,-1.323 0,-0.991 -0.248,-2.012 -0.742,-3.066 -0.495,-1.056 -1.108,-2.098 -1.84,-3.131 -0.732,-1.032 -1.539,-2.044 -2.42,-3.033 -0.883,-0.99 -1.689,-1.936 -2.421,-2.84 -0.731,-0.903 -1.344,-1.764 -1.839,-2.581 -0.495,-0.818 -0.742,-1.549 -0.742,-2.194 0,-0.603 0.118,-1.043 0.355,-1.323 0.236,-0.28 0.678,-0.42 1.323,-0.42 0.731,0 1.731,0.344 3.001,1.033 1.269,0.687 2.604,1.494 4.002,2.42 1.397,0.925 2.721,1.849 3.969,2.775 1.248,0.925 2.237,1.646 2.968,2.162 1.979,1.376 3.625,2.538 4.938,3.486 1.312,0.945 2.453,1.774 3.421,2.484 0.968,0.71 1.849,1.388 2.646,2.033 0.795,0.646 1.688,1.356 2.678,2.13 0.259,0.258 0.581,0.387 0.969,0.387 0.472,0 0.71,-0.236 0.71,-0.71 0,-0.732 -1.173,-1.915 -3.518,-3.55 -2.346,-1.636 -5.841,-4.109 -10.488,-7.422 -1.506,-1.076 -3.001,-2.14 -4.485,-3.194 -1.485,-1.055 -2.905,-2.001 -4.26,-2.84 -1.356,-0.839 -2.636,-1.517 -3.84,-2.033 -1.205,-0.517 -2.259,-0.775 -3.162,-0.775" /></g><g
           transform="translate(458.406,506.258)"
           id="g184"><path
             id="path186"
             style="fill:#231f20;fill-opacity:1;fill-rule:nonzero;stroke:none"
             d="m 0,0 c -1.979,-1.334 -3.787,-2.441 -5.421,-3.323 -1.636,-0.882 -2.862,-1.323 -3.679,-1.323 -1.291,0 -2.249,0.409 -2.872,1.226 -0.625,0.817 -0.936,1.914 -0.936,3.291 0,1.119 0.118,2.141 0.355,3.067 0.236,0.923 0.505,1.731 0.807,2.419 0.301,0.688 0.569,1.237 0.807,1.646 0.236,0.408 0.354,0.655 0.354,0.742 0,0.043 -0.021,0.065 -0.064,0.065 -0.086,0 -0.398,-0.29 -0.936,-0.872 -0.538,-0.581 -1.227,-1.312 -2.065,-2.194 -0.839,-0.883 -1.775,-1.84 -2.808,-2.872 -1.032,-1.032 -2.087,-1.99 -3.162,-2.872 -1.076,-0.881 -2.109,-1.613 -3.098,-2.194 -0.99,-0.581 -1.85,-0.871 -2.582,-0.871 -1.247,0 -2.107,0.409 -2.581,1.226 -0.473,0.818 -0.71,1.72 -0.71,2.71 0,1.248 0.322,2.647 0.968,4.195 0.645,1.549 1.517,3.109 2.614,4.68 1.097,1.569 2.345,3.098 3.743,4.582 1.398,1.485 2.861,2.796 4.389,3.937 1.526,1.139 3.055,2.054 4.582,2.743 1.527,0.687 2.937,1.032 4.228,1.032 0.257,0 0.581,-0.032 0.967,-0.097 0.388,-0.064 0.775,-0.172 1.163,-0.322 0.386,-0.151 0.709,-0.345 0.967,-0.581 0.259,-0.237 0.388,-0.506 0.388,-0.807 0,-0.516 -0.41,-0.882 -1.227,-1.097 -1.334,-0.43 -2.754,-1.129 -4.259,-2.097 -1.507,-0.969 -2.98,-2.088 -4.421,-3.356 -1.443,-1.27 -2.829,-2.604 -4.163,-4.002 -1.334,-1.399 -2.495,-2.743 -3.485,-4.034 -0.99,-1.291 -1.786,-2.442 -2.388,-3.453 -0.603,-1.011 -0.904,-1.754 -0.904,-2.226 0,-0.345 0.172,-0.517 0.517,-0.517 0.387,0 1.064,0.323 2.033,0.969 0.968,0.645 2.108,1.484 3.42,2.517 1.313,1.033 2.711,2.204 4.195,3.517 1.485,1.312 2.926,2.624 4.325,3.937 1.397,1.312 2.678,2.582 3.839,3.808 1.163,1.226 2.066,2.291 2.711,3.195 0.301,0.429 0.646,0.892 1.033,1.387 0.387,0.494 0.774,0.947 1.162,1.356 0.387,0.408 0.774,0.742 1.162,1 0.386,0.259 0.752,0.387 1.096,0.387 0.473,0 0.85,-0.128 1.13,-0.387 0.28,-0.258 0.419,-0.581 0.419,-0.968 0,-0.732 -0.236,-1.539 -0.71,-2.42 C 0.43,15.866 -0.14,14.974 -0.807,14.07 -1.475,13.167 -2.185,12.263 -2.937,11.359 -3.689,10.456 -4.347,9.595 -4.905,8.778 -5.292,8.262 -5.767,7.508 -6.325,6.519 -6.885,5.528 -7.422,4.519 -7.938,3.485 -8.455,2.453 -8.906,1.495 -9.294,0.613 -9.681,-0.269 -9.875,-0.86 -9.875,-1.161 c 0,-0.604 0.162,-0.989 0.484,-1.162 0.324,-0.171 0.635,-0.258 0.936,-0.258 0.517,0 1.431,0.366 2.743,1.097 1.313,0.731 2.808,1.678 4.485,2.839 0,0 2.398,1.733 2.84,0.902 C 2.055,1.425 0,0 0,0" /></g><g
           transform="translate(342.7549,486.1375)"
           id="g188"><path
             id="path190"
             style="fill:#ed1c24;fill-opacity:1;fill-rule:nonzero;stroke:none"
             d="m 0,0 v -11.237 h -1.844 v 4.902 h -5.139 v -4.902 H -8.827 V 0 h 1.844 v -4.592 h 5.139 V 0 Z" /></g><g
           transform="translate(355.3838,479.239)"
           id="g192"><path
             id="path194"
             style="fill:#ed1c24;fill-opacity:1;fill-rule:nonzero;stroke:none"
             d="m 0,0 c 0,1.634 -1.194,2.844 -2.828,2.844 -1.634,0 -2.84,-1.221 -2.84,-2.844 0,-1.623 1.206,-2.844 2.84,-2.844 C -1.194,-2.844 0,-1.634 0,0 M 1.785,4.334 V -4.334 H 0.349 L 0.175,-3.28 c -0.785,-0.794 -1.88,-1.27 -3.144,-1.27 -2.582,0 -4.512,1.952 -4.512,4.55 0,2.605 1.93,4.541 4.512,4.541 1.279,0 2.384,-0.483 3.171,-1.291 L 0.41,4.334 Z" /></g><g
           transform="translate(373.9258,483.5691)"
           id="g196"><path
             id="path198"
             style="fill:#ed1c24;fill-opacity:1;fill-rule:nonzero;stroke:none"
             d="M 0,0 V -8.668 H -11 V 0 h 1.745 V -7.027 H -6.35 V 0 h 1.7 v -7.027 h 2.893 V 0 Z" /></g><g
           transform="translate(386.5166,479.239)"
           id="g200"><path
             id="path202"
             style="fill:#ed1c24;fill-opacity:1;fill-rule:nonzero;stroke:none"
             d="m 0,0 c 0,1.634 -1.193,2.844 -2.827,2.844 -1.634,0 -2.84,-1.221 -2.84,-2.844 0,-1.623 1.206,-2.844 2.84,-2.844 C -1.193,-2.844 0,-1.634 0,0 M 1.787,4.334 V -4.334 H 0.35 L 0.176,-3.28 c -0.785,-0.794 -1.88,-1.27 -3.144,-1.27 -2.582,0 -4.512,1.952 -4.512,4.55 0,2.605 1.93,4.541 4.512,4.541 1.279,0 2.384,-0.483 3.171,-1.291 l 0.208,1.084 z" /></g><g
           transform="translate(410.5996,474.9006)"
           id="g204"><path
             id="path206"
             style="fill:#ed1c24;fill-opacity:1;fill-rule:nonzero;stroke:none"
             d="M 0,0 -1.048,5.903 -3.952,0.101 H -4.318 L -7.213,5.905 -8.259,0 h -1.72 l 1.568,8.668 h 1.504 l 2.775,-5.543 2.789,5.543 H 0.156 L 1.72,0 Z" /></g><g
           transform="translate(421.1259,482.1711)"
           id="g208"><path
             id="path210"
             style="fill:#ed1c24;fill-opacity:1;fill-rule:nonzero;stroke:none"
             d="M 0,0 C -1.341,0 -2.316,-0.809 -2.608,-2.094 H 2.633 C 2.313,-0.778 1.32,0 0,0 Z m 4.383,-3.542 h -7.036 c 0.222,-1.405 1.234,-2.269 2.653,-2.269 1.035,0 1.874,0.479 2.332,1.27 H 4.208 C 3.519,-6.371 1.936,-7.481 0,-7.481 c -2.534,0 -4.453,1.956 -4.453,4.544 0,2.594 1.914,4.546 4.453,4.546 2.653,0 4.419,-2.044 4.419,-4.566 0,-0.195 -0.016,-0.39 -0.036,-0.585" /></g><g
           transform="translate(437.8965,483.5686)"
           id="g212"><path
             id="path214"
             style="fill:#ed1c24;fill-opacity:1;fill-rule:nonzero;stroke:none"
             d="m 0,0 v -8.668 h -1.756 v 7.121 h -2.675 l -0.383,-3.832 c -0.246,-2.47 -1.235,-3.337 -3.251,-3.337 h -0.303 v 1.639 h 0.42 c 0.829,0 1.313,0.491 1.427,1.581 L -5.903,0 Z" /></g><g
           transform="translate(450.4609,479.2351)"
           id="g216"><path
             id="path218"
             style="fill:#ed1c24;fill-opacity:1;fill-rule:nonzero;stroke:none"
             d="m 0,0 c 0,1.659 -1.18,2.844 -2.82,2.844 -1.641,0 -2.822,-1.185 -2.822,-2.844 0,-1.659 1.181,-2.844 2.822,-2.844 C -1.18,-2.844 0,-1.659 0,0 m -7.455,0 c 0,2.621 1.983,4.545 4.635,4.545 2.646,0 4.634,-1.936 4.634,-4.545 0,-2.605 -1.988,-4.545 -4.634,-4.545 -2.652,0 -4.635,1.94 -4.635,4.545" /></g><g
           transform="translate(459.0761,476.5789)"
           id="g220"><path
             id="path222"
             style="fill:#ed1c24;fill-opacity:1;fill-rule:nonzero;stroke:none"
             d="M 0,0 H 3.911 V 5.422 H 1.061 C 0.82,1.868 0.562,0.68 0,0 M 6.779,0 V -3.856 H 5.158 v 2.178 H -1.163 V -3.856 H -2.784 V 0 h 0.92 c 0.713,0.607 0.881,1.584 1.339,6.99 h 6.18 V 0 Z" /></g><g
           transform="translate(478.331,483.5691)"
           id="g224"><path
             id="path226"
             style="fill:#ed1c24;fill-opacity:1;fill-rule:nonzero;stroke:none"
             d="m 0,0 v -8.668 h -1.701 v 5.5 l -4.62,-5.5 H -7.344 V 0 h 1.713 V -5.453 L -0.994,0 Z" /></g><g
           transform="translate(488.9238,479.636)"
           id="g228"><path
             id="path230"
             style="fill:#ed1c24;fill-opacity:1;fill-rule:nonzero;stroke:none"
             d="M 0,0 V 2.352 H -2.17 C -2.965,2.352 -3.472,1.87 -3.472,1.176 -3.472,0.481 -2.965,0 -2.17,0 Z M 1.727,3.933 V -4.735 H 0 v 3.177 h -1.825 l -1.883,-3.177 h -1.941 l 2.072,3.462 c -1.049,0.423 -1.69,1.329 -1.69,2.454 0,1.58 1.22,2.752 2.863,2.752 z" /></g><g
           transform="translate(143.3689,531.7643)"
           id="g232"><path
             id="path234"
             style="fill:#d8d78b;fill-opacity:1;fill-rule:nonzero;stroke:none"
             d="m 0,0 c 0,0 -5.559,22.996 21.796,50.604 21.208,21.404 30.094,24.061 43.398,38.488 12.313,13.353 14.138,28.081 14.138,28.081 0,0 -1.825,-22.583 -18.042,-37.899 C 48.514,67.206 40.992,62.047 34.364,56.102 21.041,44.152 14.492,39.664 8.247,28.807 -1.105,12.549 0,0 0,0" /></g><g
           transform="translate(214.884,555.3141)"
           id="g236"><path
             id="path238"
             style="fill:#d8d78b;fill-opacity:1;fill-rule:nonzero;stroke:none"
             d="m 0,0 c 0,0 15.398,14.201 26.028,5.119 10.629,-9.082 6.501,-30.383 6.501,-30.383 0,0 1.156,20.31 -10.072,26.75 C 11.228,7.926 0,0 0,0" /></g><g
           transform="translate(164.408,528.4428)"
           id="g240"><path
             id="path242"
             style="fill:#d8d78b;fill-opacity:1;fill-rule:nonzero;stroke:none"
             d="m 0,0 c 0,0 -0.66,10.418 8.342,14.945 7.532,3.788 14.358,2.276 14.358,2.276 0,0 -9.955,-0.336 -15.962,-5.531 C 0.731,6.496 0,0 0,0" /></g><g
           transform="translate(178.6066,467.7392)"
           id="g244"><path
             id="path246"
             style="fill:#d8d78b;fill-opacity:1;fill-rule:nonzero;stroke:none"
             d="m 0,0 c 0,0 -13.302,-3.325 -12.47,-18.789 0.736,-13.696 13.966,-20.285 13.966,-20.285 0,0 -9.556,8.29 -9.81,22.281 C -8.524,-5.167 0,0 0,0" /></g><g
           transform="translate(297.1637,494.856)"
           id="g248"><path
             id="path250"
             style="fill:#c09f51;fill-opacity:1;fill-rule:nonzero;stroke:none"
             d="m 0,0 c 0,-2.938 -3.411,-5.319 -7.618,-5.319 -4.208,0 -7.619,2.381 -7.619,5.319 0,2.938 3.411,5.319 7.619,5.319 C -3.411,5.319 0,2.938 0,0" /></g></g></g></g></svg>